<svg width="361" height="255" viewBox="0 0 361 255" fill="none" xmlns="http://www.w3.org/2000/svg">
<g clip-path="url(#clip0_3502_1949)">
<path d="M141.956 159.543C142.067 158.787 142.011 158.015 141.792 157.283C141.573 156.551 141.196 155.876 140.688 155.305C140.179 154.734 139.552 154.282 138.85 153.98C138.148 153.678 137.388 153.534 136.624 153.557L103.143 119.704L96.5283 128.95L131.52 159.319C131.644 160.6 132.234 161.79 133.177 162.665C134.121 163.54 135.352 164.039 136.639 164.066C137.925 164.094 139.177 163.649 140.157 162.815C141.137 161.981 141.777 160.817 141.956 159.543Z" fill="#FFB8B8"/>
<path d="M126.096 139.995L117.55 148.531C117.141 148.938 116.588 149.167 116.011 149.169C115.434 149.172 114.88 148.947 114.467 148.544L91.1155 125.586C90.3081 124.792 89.6661 123.846 89.2267 122.802C88.7872 121.759 88.559 120.639 88.5553 119.506C88.5515 118.374 88.7722 117.252 89.2047 116.206C89.6372 115.159 90.2728 114.209 91.0749 113.41C91.8769 112.611 92.8295 111.978 93.8774 111.55C94.9253 111.121 96.0479 110.904 97.1801 110.912C98.3124 110.92 99.4318 111.152 100.474 111.595C101.516 112.038 102.459 112.683 103.25 113.494L126.115 136.916C126.516 137.329 126.739 137.884 126.735 138.46C126.731 139.035 126.502 139.587 126.096 139.995Z" fill="#0A84FF"/>
<path d="M96.1247 98.0942C102.726 98.0942 108.077 92.7431 108.077 86.1422C108.077 79.5413 102.726 74.1902 96.1247 74.1902C89.5238 74.1902 84.1727 79.5413 84.1727 86.1422C84.1727 92.7431 89.5238 98.0942 96.1247 98.0942Z" fill="#FFB8B8"/>
<path d="M55.7393 229.368L58.7657 234.509L80.037 225.283L75.5702 217.695L55.7393 229.368Z" fill="#FFB8B8"/>
<path d="M56.6462 227.068L62.606 237.193C63.1048 238.041 63.432 238.979 63.5685 239.952C63.705 240.926 63.6484 241.917 63.4019 242.869C63.1554 243.821 62.7238 244.715 62.1317 245.5C61.5397 246.285 60.7989 246.946 59.9515 247.444L59.7418 247.568L49.9838 230.99L56.6462 227.068Z" fill="#2F2E41"/>
<path d="M90.804 247.89H96.77L99.608 224.878L90.803 224.879L90.804 247.89Z" fill="#FFB8B8"/>
<path d="M89.2823 245.942L101.031 245.942H101.032C102.015 245.942 102.989 246.135 103.897 246.511C104.806 246.888 105.631 247.439 106.326 248.134C107.021 248.83 107.573 249.655 107.949 250.564C108.326 251.472 108.519 252.446 108.519 253.429V253.672L89.2827 253.673L89.2823 245.942Z" fill="#2F2E41"/>
<path d="M66.819 233.948C66.4757 233.948 66.1371 233.868 65.8307 233.713C65.5243 233.558 65.2588 233.333 65.0555 233.056L59.3018 225.242C59.1263 225.003 59.0009 224.732 58.9332 224.444C58.8656 224.155 58.8571 223.856 58.9082 223.565C58.9594 223.273 59.0691 222.995 59.2308 222.747C59.3925 222.499 59.6028 222.287 59.849 222.122L85.4522 205.021L70.0036 164.401L103.04 167.127L104.153 202.034C104.257 205.213 103.495 208.361 101.948 211.14C100.402 213.919 98.1283 216.226 95.3716 217.812L67.9131 233.654C67.5806 233.847 67.2032 233.948 66.819 233.948Z" fill="#2F2E41"/>
<path d="M90.9841 243.218C90.4176 243.217 89.8735 242.997 89.4661 242.603C89.0588 242.209 88.82 241.673 88.7998 241.106L87.5891 207.1L102.581 206.31L101.387 240.561C101.37 241.103 101.151 241.62 100.773 242.01C100.395 242.4 99.8855 242.635 99.3437 242.669L91.133 243.213C91.0832 243.217 91.0336 243.218 90.9841 243.218Z" fill="#2F2E41"/>
<path d="M106.863 173.88C103.049 173.88 89.7262 169.59 85.1011 168.06C84.4091 168.614 80.608 171.456 76.171 170.937C73.4332 170.616 71.0231 169.066 69.0074 166.331C64.5562 160.29 70.0539 134.383 75.4498 113.714C76.5316 109.536 79.1909 105.94 82.8689 103.682C86.5468 101.425 90.9569 100.681 95.172 101.607C98.227 102.281 101.033 103.794 103.276 105.976C105.519 108.157 107.108 110.921 107.867 113.956C108.883 118.092 108.009 122.956 107.371 126.508C107.071 128.178 106.834 129.497 106.915 130.146C107.228 132.651 108.968 171.942 107.849 173.62C107.73 173.799 107.385 173.88 106.863 173.88Z" fill="#0A84FF"/>
<path d="M92.9095 173.949C93.5226 173.493 94.0281 172.908 94.3905 172.235C94.7529 171.562 94.9633 170.818 95.007 170.055C95.0507 169.292 94.9265 168.529 94.6433 167.819C94.3601 167.109 93.9247 166.47 93.3678 165.947L93.6039 118.334L82.3898 120.201L85.6839 166.416C84.8667 167.41 84.4425 168.669 84.4916 169.955C84.5407 171.24 85.0598 172.463 85.9505 173.392C86.8412 174.321 88.0415 174.89 89.3241 174.993C90.6067 175.096 91.8824 174.725 92.9095 173.949Z" fill="#FFB8B8"/>
<path d="M95.5032 148.911H83.4244C82.8476 148.909 82.2946 148.681 81.8849 148.275C81.4751 147.869 81.2415 147.318 81.2346 146.741L80.938 113.995C80.9277 112.863 81.142 111.74 81.5685 110.691C81.9951 109.642 82.6253 108.688 83.4228 107.884C84.2204 107.08 85.1693 106.443 86.2149 106.008C87.2605 105.573 88.3818 105.35 89.5142 105.351C90.6465 105.353 91.7674 105.579 92.8119 106.016C93.8564 106.453 94.8038 107.093 95.5993 107.899C96.3949 108.705 97.0228 109.66 97.4468 110.71C97.8707 111.76 98.0823 112.884 98.0692 114.016L97.6929 146.746C97.6844 147.322 97.4501 147.872 97.0406 148.276C96.6311 148.681 96.0791 148.909 95.5032 148.911Z" fill="#0A84FF"/>
<path d="M93.0815 98.0444C87.6092 98.0545 82.4467 93.7291 81.4984 88.3396C81.1589 86.2223 81.312 84.0553 81.9457 82.0068C82.6339 79.6748 83.8139 77.5174 85.4064 75.6801C86.9989 73.8428 88.9668 72.3683 91.1774 71.3559C93.388 70.3435 95.7899 69.8168 98.2213 69.8113C100.653 69.8058 103.057 70.3217 105.272 71.3241C106.736 71.9865 108.178 72.9379 108.848 74.3983C109.519 75.8586 109.099 77.8997 107.633 78.5568C106.675 78.9862 105.472 78.7753 104.622 79.3917C103.401 80.277 103.715 82.1612 104.26 83.5674C104.806 84.9737 105.422 86.6755 104.508 87.8752C103.657 88.9932 101.954 88.9585 100.613 88.5377C99.2723 88.1169 97.9487 87.4123 96.5506 87.5556C94.5115 87.7647 93.0461 89.793 92.7749 91.8248C92.5036 93.8566 93.1422 95.8876 93.7726 97.8381L93.0815 98.0444Z" fill="#2F2E41"/>
<path d="M242.64 110.243C242.64 77.5582 269.136 0 301.82 0C334.504 0 361 77.5582 361 110.243C361 125.938 354.765 140.991 343.667 152.089C332.568 163.188 317.515 169.423 301.82 169.423C286.124 169.423 271.072 163.188 259.973 152.089C248.875 140.991 242.64 125.938 242.64 110.243Z" fill="#0A84FF"/>
<path d="M301.82 254.221C301.691 254.221 301.567 254.17 301.476 254.079C301.384 253.987 301.333 253.863 301.333 253.734V49.7007C301.333 49.5717 301.384 49.4479 301.476 49.3566C301.567 49.2654 301.691 49.2141 301.82 49.2141C301.949 49.2141 302.073 49.2654 302.164 49.3566C302.255 49.4479 302.306 49.5717 302.306 49.7007V253.734C302.306 253.863 302.255 253.987 302.164 254.079C302.073 254.17 301.949 254.221 301.82 254.221Z" fill="#3F3D56"/>
<path d="M301.82 89.0909C301.756 89.091 301.693 89.0784 301.634 89.054C301.575 89.0295 301.521 88.9936 301.476 88.9483L278.052 65.525C277.962 65.4336 277.912 65.3101 277.912 65.1816C277.912 65.053 277.964 64.9299 278.055 64.839C278.145 64.7482 278.269 64.6969 278.397 64.6965C278.526 64.6961 278.649 64.7466 278.741 64.8369L302.164 88.2602C302.232 88.3283 302.278 88.415 302.297 88.5094C302.316 88.6037 302.306 88.7016 302.269 88.7905C302.233 88.8794 302.17 88.9554 302.09 89.0089C302.01 89.0623 301.916 89.0909 301.82 89.0909Z" fill="#3F3D56"/>
<path d="M301.82 129.641C301.724 129.641 301.63 129.613 301.55 129.559C301.47 129.506 301.407 129.43 301.37 129.341C301.333 129.252 301.324 129.154 301.343 129.06C301.361 128.965 301.408 128.879 301.476 128.811L340.702 89.5837C340.794 89.4934 340.917 89.4431 341.046 89.4435C341.174 89.4439 341.297 89.4951 341.388 89.586C341.479 89.6768 341.53 89.7999 341.531 89.9284C341.531 90.0569 341.481 90.1803 341.391 90.2718L302.164 129.499C302.119 129.544 302.065 129.58 302.006 129.604C301.947 129.629 301.884 129.641 301.82 129.641Z" fill="#3F3D56"/>
<path d="M138.044 159.266C145.808 157.511 154.604 163.584 154.877 171.737C154.954 174.03 154.282 176.438 152.517 177.998C151.06 179.286 148.892 179.936 147.009 179.306C143.385 178.095 143.191 173.045 145.135 170.348C147.768 166.696 152.983 166.072 157.121 166.507C162.18 167.038 166.988 169.256 171.023 172.296C179.1 178.383 184.243 187.712 188.406 196.725C192.668 205.97 195.767 215.709 197.632 225.717C197.867 226.974 198.082 228.235 198.277 229.498C198.333 229.684 198.459 229.84 198.628 229.933C198.797 230.026 198.997 230.048 199.182 229.995C199.366 229.937 199.519 229.811 199.612 229.642C199.704 229.474 199.729 229.276 199.679 229.09C197.975 218.169 194.828 207.522 190.319 197.43C185.96 187.662 180.465 177.53 171.723 171.011C167.365 167.762 162.219 165.501 156.773 165.017C152.188 164.61 146.759 165.58 143.908 169.568C141.658 172.713 141.887 177.942 145.367 180.132C147.281 181.337 149.712 181.196 151.699 180.26C152.753 179.739 153.682 178.995 154.42 178.08C155.158 177.165 155.688 176.1 155.974 174.96C157.21 170.432 155.333 165.534 152.116 162.297C149.097 159.251 144.993 157.525 140.704 157.498C139.671 157.509 138.643 157.632 137.636 157.864C136.72 158.071 137.129 159.473 138.044 159.266Z" fill="#CCCCCC"/>
<path d="M175.487 248.932L170.662 240.695L176.611 237.21L181.436 245.447C181.898 246.236 182.028 247.177 181.797 248.061C181.566 248.946 180.993 249.703 180.204 250.165C179.415 250.627 178.475 250.757 177.59 250.525C176.705 250.294 175.949 249.721 175.487 248.932Z" fill="#0A84FF"/>
<path d="M159.534 231.81C161.877 231.81 163.777 229.91 163.777 227.567C163.777 225.224 161.877 223.324 159.534 223.324C157.191 223.324 155.291 225.224 155.291 227.567C155.291 229.91 157.191 231.81 159.534 231.81Z" fill="#0A84FF"/>
<path d="M194.154 248.932L189.33 240.695L195.279 237.21L200.104 245.447C200.565 246.236 200.694 247.176 200.462 248.06C200.231 248.944 199.658 249.7 198.87 250.161C198.081 250.623 197.142 250.753 196.258 250.523C195.374 250.292 194.617 249.72 194.154 248.932Z" fill="#0A84FF"/>
<path d="M160.34 236.115C160.343 233.724 161.294 231.433 162.984 229.742C164.674 228.052 166.966 227.101 169.356 227.099H197.897C198.908 227.1 199.876 227.502 200.591 228.216C201.305 228.931 201.707 229.899 201.708 230.91V234.157C201.705 237.067 200.548 239.856 198.49 241.913C196.433 243.97 193.644 245.127 190.734 245.131H169.356C166.966 245.128 164.674 244.177 162.984 242.487C161.294 240.797 160.343 238.505 160.34 236.115Z" fill="#3F3D56"/>
<path d="M166.922 249.995V240.448H173.817V249.995C173.817 250.909 173.453 251.786 172.807 252.432C172.16 253.079 171.284 253.442 170.369 253.442C169.455 253.442 168.578 253.079 167.932 252.432C167.285 251.786 166.922 250.909 166.922 249.995Z" fill="#3F3D56"/>
<path d="M186.928 249.995V240.448H193.823V249.995C193.824 250.448 193.735 250.896 193.562 251.315C193.389 251.734 193.135 252.114 192.815 252.435C192.495 252.755 192.114 253.01 191.696 253.183C191.277 253.357 190.829 253.446 190.376 253.446C189.923 253.446 189.474 253.357 189.055 253.183C188.637 253.01 188.257 252.755 187.937 252.435C187.616 252.114 187.363 251.734 187.19 251.315C187.017 250.896 186.928 250.448 186.928 249.995Z" fill="#3F3D56"/>
<path d="M214.98 212.225C215.685 211.35 216.709 210.791 217.826 210.67C218.944 210.549 220.063 210.877 220.939 211.58C221.816 212.284 222.377 213.307 222.5 214.424C222.623 215.541 222.298 216.661 221.596 217.538L214.622 226.222L208.006 220.908L214.98 212.225Z" fill="#0A84FF"/>
<path d="M198.18 229.331L203.767 222.374C205.126 220.687 207.098 219.607 209.252 219.372C211.406 219.137 213.565 219.765 215.255 221.12L217.001 222.522C219.013 224.142 220.301 226.494 220.581 229.062C220.861 231.629 220.112 234.204 218.496 236.219L213.893 241.951C213.385 242.583 212.646 242.987 211.84 243.075C211.033 243.163 210.225 242.928 209.592 242.42L198.65 233.632C198.018 233.123 197.613 232.385 197.525 231.579C197.437 230.772 197.673 229.964 198.18 229.331Z" fill="#3F3D56"/>
<path d="M215.81 211.191C216.05 210.892 216.346 210.644 216.682 210.46C217.018 210.276 217.387 210.16 217.768 210.118C218.149 210.076 218.534 210.11 218.902 210.218C219.269 210.325 219.612 210.504 219.911 210.743C220.21 210.983 220.458 211.28 220.642 211.616C220.826 211.951 220.943 212.32 220.984 212.701C221.026 213.082 220.992 213.467 220.884 213.835C220.777 214.203 220.598 214.546 220.359 214.844L212.554 224.562L208.006 220.908L215.81 211.191Z" fill="#3F3D56"/>
<path d="M204.63 227.434L216.621 237.065C217.495 237.771 218.054 238.794 218.174 239.911C218.295 241.028 217.967 242.147 217.264 243.023C216.56 243.899 215.538 244.46 214.422 244.583C213.305 244.707 212.185 244.382 211.308 243.681L199.316 234.05L204.63 227.434Z" fill="#3F3D56"/>
<path d="M217.786 243.344C218.405 242.573 218.56 241.67 218.131 241.326C217.703 240.982 216.854 241.328 216.235 242.099C215.616 242.869 215.461 243.773 215.89 244.117C216.318 244.461 217.167 244.115 217.786 243.344Z" fill="#0A84FF"/>
<path d="M336.744 254.131H0.486624C0.357563 254.131 0.233788 254.08 0.142528 253.988C0.0512688 253.897 0 253.773 0 253.644C0 253.515 0.0512688 253.391 0.142528 253.3C0.233788 253.209 0.357563 253.158 0.486624 253.158H336.744C336.873 253.158 336.997 253.209 337.088 253.3C337.179 253.391 337.23 253.515 337.23 253.644C337.23 253.773 337.179 253.897 337.088 253.988C336.997 254.08 336.873 254.131 336.744 254.131Z" fill="#888888"/>
</g>
<defs>
<clipPath id="clip0_3502_1949">
<rect width="361" height="254.221" fill="white"/>
</clipPath>
</defs>
</svg>
